<svg id="Layer_1" viewBox="0 0 24 24" xmlns="http://www.w3.org/2000/svg" data-name="Layer 1"><path d="m12.229 17 .008 2.015c0 .395-.342.726-.75.733-.402-.007-.725-.333-.724-.736 0-.138-.008-1.929-.008-2.024 0-.403.322-.729.724-.736.408.007.75.339.75.733zm9.771-11.335v18.335h-20v-21c0-1.654 1.346-3 3-3h11.381zm-17-2.665v9h14v-4h-5v-5zm1 18 2.722-.006v-1.255c-1.139.001-.448.004-1.468.005-.002-1.471-.004-3.455-.005-4.744h-1.255zm5.475 0c1.11 0 2.012-.891 2.012-1.985v-.015l-.008-2v-.015c0-1.094-.903-1.985-2.012-1.985-1.086 0-1.967.881-1.967 1.967l.008 2.066c0 1.086.881 1.967 1.967 1.967zm5 0c1.11 0 2.012-.891 2.012-1.985v-.015l-.004-1h-1.25v.004l-.766.002v1.255c.633 0 .498-.003.718-.004-.106.279-.378.485-.698.491-.402-.007-.725-.333-.724-.736 0-.138-.008-1.929-.008-2.024 0-.403.322-.729.724-.736.408.007.75.339.75.733v.015h1.25v-.015c0-1.094-.903-1.985-2.012-1.985-1.086 0-1.967.881-1.967 1.967l.008 2.066c0 1.086.881 1.967 1.967 1.967z"/></svg>